<svg width="106" height="100" viewBox="0 0 106 100" fill="none" xmlns="http://www.w3.org/2000/svg">
<path d="M105.29 0.449998C100.79 5 93.4404 8.65 84.3404 11.25C75.4464 3.95497 64.2934 -0.0219324 52.7904 -1.33025e-06C40.8404 -1.33025e-06 29.8404 4.2 21.2404 11.25C12.1404 8.65 4.79041 5 0.290405 0.449998C0.440405 8.6 4.54041 16.05 11.3904 22C5.76186 30.2507 2.76363 40.0123 2.79041 50C2.79041 63.2608 8.05825 75.9785 17.4351 85.3553C22.078 89.9983 27.59 93.6812 33.6562 96.194C39.7225 98.7067 46.2243 100 52.7904 100C66.0512 100 78.7689 94.7322 88.1457 85.3553C97.5226 75.9785 102.79 63.2608 102.79 50C102.79 39.6 99.6404 30 94.1904 22C101.04 16.05 105.14 8.6 105.29 0.449998ZM30.2904 32.5L45.2904 40C45.2904 44 41.7904 47.5 37.7904 47.5C33.7904 47.5 30.2904 44 30.2904 40V32.5ZM52.7904 76.15C44.0404 76.15 36.3404 72.5 31.8404 67.1L38.9404 60C41.1904 63.6 46.5404 66.15 52.7904 66.15C59.0404 66.15 64.3904 63.6 66.6404 60L73.7404 67.1C69.2404 72.5 61.5404 76.15 52.7904 76.15ZM75.2904 40C75.2904 44 71.7904 47.5 67.7904 47.5C63.7904 47.5 60.2904 44 60.2904 40L75.2904 32.5V40Z" fill="white" fill-opacity="0.6"/>
</svg>
