<svg width="111" height="98" viewBox="0 0 111 98" fill="none" xmlns="http://www.w3.org/2000/svg">
<path d="M55.2836 0.0250931C42.5024 0.0250931 32.0875 5.11197 32.0875 11.3482C32.0875 17.5849 42.5024 22.6638 55.2836 22.6638C68.064 22.6638 78.479 17.5849 78.479 11.3482C78.479 5.1115 68.064 0.0250931 55.2836 0.0250931ZM55.2836 3.13056C64.675 3.13056 72.114 6.76525 72.114 11.3482C72.114 15.9312 64.675 19.6615 55.2836 19.6615C45.8915 19.6615 38.2469 15.9312 38.2469 11.3482C38.2469 6.76572 45.8915 3.13009 55.2836 3.13056ZM14.4578 6.60939C11.3542 6.58736 6.90295 10.0289 4.54139 15.4425C-5.60705 38.7028 2.29537 99.746 25.1369 97.9355C19.9801 86.1014 14.8712 72.627 11.8431 58.3847C18.0158 75.3755 28.7954 90.1613 39.463 86.5533C31.959 77.1349 23.983 66.1006 18.3618 53.6606C26.5686 67.5298 38.3704 78.4699 47.1969 73.6997C40.2262 67.4693 32.7669 60.2175 26.3816 51.8442C35.6739 60.6052 46.7938 66.2208 52.6902 60.6919C41.5129 55.7536 30.5722 48.113 23.3788 39.6567C19.5557 35.1624 16.7706 30.4247 15.7101 25.5942C15.1804 23.1788 15.1222 20.7202 15.6004 18.3431C15.6051 18.3209 15.6104 18.2995 15.6151 18.2775C15.6168 18.2672 15.6203 18.2581 15.6222 18.248C16.5714 13.264 19.1479 9.94806 16.6769 7.47376C16.0947 6.89087 15.3273 6.61572 14.4578 6.60939ZM95.9401 6.60939C95.0706 6.61572 94.3103 6.89064 93.7281 7.47376C91.8119 9.39236 92.9275 11.8247 93.9695 15.1425C95.4116 18.4676 95.6439 22.072 94.8707 25.594C93.8104 30.4245 91.0176 35.1621 87.1949 39.6565C79.9766 48.1423 68.991 55.8066 57.7738 60.7427C63.6847 66.1821 74.7618 60.5763 84.0238 51.8435C77.6383 60.2173 70.1793 67.4693 63.208 73.699C72.0351 78.4697 83.8368 67.5295 92.0439 53.6604C86.4224 66.1003 78.4464 77.1347 70.9426 86.5533C81.6102 90.1615 92.3828 75.3759 98.5553 58.3847C95.5276 72.6272 90.4258 86.1019 85.269 97.9355C108.111 99.7463 116.005 38.7031 105.857 15.4425C103.496 10.0292 99.044 6.58736 95.9401 6.60939ZM90.7323 23.9461C67.2018 39.937 43.6855 43.2731 20.1269 25.2277C21.069 28.8968 23.3823 32.8995 26.7189 36.8222C33.4975 44.791 44.4095 52.3795 55.2906 57.0511C66.1717 52.3795 77.0837 44.791 83.8623 36.8222C87.3733 32.6942 89.754 28.4799 90.5936 24.6565C90.6458 24.4174 90.6908 24.1817 90.7323 23.9461Z" fill="white" fill-opacity="0.6"/>
</svg>
